Patient4_TMGait_0pt2_03_left_24_EMG.mot
version=1
nRows=13
nColumns=33
inDegrees=no
endheader
time	1LAddLong	2LGlutMax	3LGlutMed	4LIliopsoas	5LSemiMemb	6LBicFemLong	7LRecFem	8LVastMed	9LVastLat	10LGasMed	11LTibAnt	12lTibPost	13LPeroneusLong	14LSol	15LExtDigLong	16LFlexDigLong	17RAddLong	18RGlutMax	19RGlutMed	20RIliopsoas	21RSemiMemb	22RBicFemLong	23RRecFem	24RVastMed	25RVastLat	26RGasMed	27RTibAnt	28RTibPost	29RPeroneusLong	30RSol	31RExtDigLong	32RFlexDigLong
52.303	0.054169	-0.039673	0.005493	-0.020294	-0.000305	0.00824	0.008545	-0.001068	0.008392	-0.020447	0.046692	-0.027313	0.008087	-0.063477	0.041809	0.009003	0.054626	-0.02243	-0.071869	-0.006104	-0.03891	0.1329	0.25543	0.54398	-0.64987	0.00412	-0.007172	-0.00412	0.52307	-0.010986	-0.002899	-0.006714
52.304	0.010681	-0.039063	-0.053864	0.002747	-0.004578	-0.004425	0.010834	0.00412	0.009766	-0.018005	0.078583	-0.029144	-0.031128	-0.1091	0.005493	-0.014648	0.047302	-0.10635	-0.27359	0.005646	0.041199	0.14694	0.30914	0.48218	-0.88684	0.012512	0.036011	-0.005798	0.2269	-0.13596	-0.007935	0.001373
52.305	0.010529	-0.054779	-0.001984	-0.000153	-0.000153	0.006256	0.011444	-0.000763	0.009766	-0.007324	0.036011	-0.012817	-0.026398	-0.089111	0.048828	0.01358	0.044098	-0.029144	0.91614	-0.065155	0.15167	0.075378	0.13214	0.31372	-0.63355	0.004883	0.056458	-0.032349	-0.2063	-0.16357	-0.004272	0.004425
52.306	0.007019	-0.058289	0.04776	0.029449	0.001221	-0.010223	0.015259	-0.000458	0.006714	-0.018616	0.001984	-0.018005	-0.024414	-0.041962	0.17395	0.020905	-0.017242	-0.12222	0.48096	-0.040283	0.12772	0.061188	-0.32227	0.83038	0.00824	-0.019684	-0.007324	-0.058441	-0.28686	0.098114	-0.005341	-0.008392
52.307	0.00824	-0.069427	-0.073853	0.023193	-0.004425	0.00885	-0.002289	0.003967	-0.003052	-0.004578	0.010223	-0.015259	-0.027161	-0.057373	0.19165	0.012054	-0.027466	-0.029449	-0.68954	0.15213	0.005493	0.02594	-0.53528	0.99716	0.54336	-0.016785	-0.066223	0.043793	0.027161	0.3064	-0.00946	-0.007477
52.308	0.02121	-0.070953	-0.005188	-0.018768	0.001831	0.038147	0.023956	0.00412	-0.030975	-0.002136	0.020294	-0.013428	-0.04303	-0.059814	0.13809	0.010529	0.00824	0.049744	-0.65033	0.007477	-0.047607	-0.036926	-0.40527	0.29984	0.71823	0.015411	-0.098877	0.064392	0.046387	0.33173	-0.005341	-0.00885
52.309	0.019684	-0.046387	0.10544	-0.023651	-0.00946	0.047455	0.030212	0.006561	-0.023499	-0.016632	0.007782	-0.017242	-0.030518	-0.082855	0.022583	0.016479	0.021667	0.14358	-0.45364	-0.074921	-0.098877	0.007935	-0.12482	0.063934	0.60791	0.02243	-0.035095	0.032806	-0.4773	0.16251	-0.005341	-0.001526
52.31	0.016327	-0.043335	0.19547	0.019226	-0.002441	0.037842	0.004272	0.005035	-0.001068	-0.024872	-0.038147	-0.009766	0.026703	-0.080109	-0.028229	0.007629	0.004425	0.1416	-0.78995	0.037842	-0.12787	0.016479	-0.17395	-0.22507	0.42602	0.002289	-0.10361	-0.3009	-0.60288	0.10132	-0.006714	-0.001984
52.311	0.010376	-0.095978	0.10452	0.033264	-0.001373	0.025635	-0.011749	0.005188	-0.024872	-0.022736	0.038147	-0.00946	0.0354	-0.046844	0.00885	0.030975	0.004578	0.068817	0.14328	0.17395	0.017395	-0.020142	-0.22018	-0.74478	0.092163	-0.019531	-0.043793	0.055542	-0.67459	0.031738	-0.003662	-0.002136
52.312	0.011902	-0.090179	0.030212	0.033722	-0.003357	0.039215	0.008698	-0.005341	-0.028687	0.013885	0.095978	-0.003052	0.001526	-0.058594	-0.028687	0.021362	0.049744	0.039978	1.5349	0.073395	-0.005951	-0.1004	0.2626	-1.3954	-0.38849	-0.019379	0.23102	0.034637	0.35889	-0.18585	0.000458	-0.008087
52.313	0.011292	-0.059052	0.053406	0.016632	-0.006104	0.027771	0.019073	0.00412	-0.016174	0.020905	0.11368	-0.008087	-0.024414	-0.03418	-0.022278	0.015106	0.069275	0.085754	0.64896	-0.006561	-0.020142	-0.14343	0.73791	-1.2714	-0.55542	-0.008087	0.33493	-0.37689	-0.39017	-0.38757	-0.000153	-0.002899
52.314	0.006866	-0.061188	0.10971	-0.003052	-0.004883	0.032501	0.013733	0.001678	-0.010223	-0.02655	0.016479	-0.006256	0.009918	0.024567	-0.10681	0.033722	0.062256	0.18555	-0.43045	-0.006561	0.035706	-0.1149	0.50919	-0.87738	-0.2475	-0.032959	-0.033112	0.083466	1.1937	-0.39902	-0.00351	-0.010223
52.315	0.00824	-0.045624	0.028076	0.018005	-0.010376	0.038147	0.009613	0.002289	-0.018463	-0.027008	-0.10925	-0.000305	0.032501	-0.013428	-0.1593	0.019073	0.070496	0.30823	1.0965	-0.14587	0.036469	-0.14313	0.079346	-0.7991	-0.12756	-0.01709	-0.27817	0.085602	1.5462	-0.50629	-0.004272	-0.006714
